<svg fill="none" height="24" viewBox="0 0 24 24" width="24" xmlns="http://www.w3.org/2000/svg"><g stroke="#0f172a" stroke-width="1.5"><path d="m12 16c1.0609 0 2.0783-.4214 2.8284-1.1716.7502-.7501 1.1716-1.7675 1.1716-2.8284s-.4214-2.07828-1.1716-2.82843c-.7501-.75014-1.7675-1.17157-2.8284-1.17157s-2.07828.42143-2.82843 1.17157c-.75014.75015-1.17157 1.76753-1.17157 2.82843s.42143 2.0783 1.17157 2.8284c.75015.7502 1.76753 1.1716 2.82843 1.1716z" stroke-linecap="round" stroke-linejoin="round"/><path d="m3 16v-8c0-1.32608.52678-2.59785 1.46447-3.53553.93768-.93769 2.20945-1.46447 3.53553-1.46447h8c1.3261 0 2.5979.52678 3.5355 1.46447.9377.93768 1.4645 2.20945 1.4645 3.53553v8c0 1.3261-.5268 2.5979-1.4645 3.5355-.9376.9377-2.2094 1.4645-3.5355 1.4645h-8c-1.32608 0-2.59785-.5268-3.53553-1.4645-.93769-.9376-1.46447-2.2094-1.46447-3.5355z"/><path d="m17.5 6.50999.01-.011" stroke-linecap="round" stroke-linejoin="round"/></g></svg>